<mxfile host="65bd71144e">
    <diagram id="6gfDzhR8UG0JMTbnyaS-" name="Page-1">
        <mxGraphModel dx="1653" dy="606" grid="1" gridSize="10" guides="1" tooltips="1" connect="1" arrows="1" fold="1" page="1" pageScale="1" pageWidth="850" pageHeight="1100" math="0" shadow="0">
            <root>
                <mxCell id="0"/>
                <mxCell id="1" parent="0"/>
                <mxCell id="73" style="edgeStyle=none;html=1;entryX=0.5;entryY=1;entryDx=0;entryDy=0;endArrow=none;endFill=0;exitX=0.5;exitY=0;exitDx=0;exitDy=0;" parent="1" source="27" target="66" edge="1">
                    <mxGeometry relative="1" as="geometry">
                        <mxPoint x="-160" y="330" as="sourcePoint"/>
                    </mxGeometry>
                </mxCell>
                <mxCell id="231" style="edgeStyle=none;html=1;exitX=1;exitY=0.5;exitDx=0;exitDy=0;entryX=0.5;entryY=0;entryDx=0;entryDy=0;endArrow=none;endFill=0;" parent="1" source="27" target="230" edge="1">
                    <mxGeometry relative="1" as="geometry">
                        <Array as="points">
                            <mxPoint x="-20" y="340"/>
                        </Array>
                    </mxGeometry>
                </mxCell>
                <mxCell id="235" style="edgeStyle=none;html=1;exitX=0.5;exitY=1;exitDx=0;exitDy=0;entryX=0;entryY=0.5;entryDx=0;entryDy=0;endArrow=none;endFill=0;startArrow=none;" parent="1" source="239" target="234" edge="1">
                    <mxGeometry relative="1" as="geometry"/>
                </mxCell>
                <mxCell id="242" style="edgeStyle=none;html=1;exitX=0.5;exitY=1;exitDx=0;exitDy=0;entryX=0.5;entryY=1;entryDx=0;entryDy=0;endArrow=none;endFill=0;" parent="1" source="27" target="239" edge="1">
                    <mxGeometry relative="1" as="geometry"/>
                </mxCell>
                <mxCell id="27" value="Persona" style="rounded=0;whiteSpace=wrap;html=1;fillColor=#e1d5e7;strokeColor=#9673a6;" parent="1" vertex="1">
                    <mxGeometry x="-280" y="320" width="120" height="40" as="geometry"/>
                </mxCell>
                <mxCell id="219" style="edgeStyle=none;html=1;exitX=1;exitY=0.5;exitDx=0;exitDy=0;entryX=0;entryY=0.5;entryDx=0;entryDy=0;endArrow=none;endFill=0;" parent="1" source="28" target="217" edge="1">
                    <mxGeometry relative="1" as="geometry"/>
                </mxCell>
                <mxCell id="256" style="edgeStyle=none;html=1;exitX=0.5;exitY=1;exitDx=0;exitDy=0;entryX=0;entryY=1;entryDx=0;entryDy=0;endArrow=none;endFill=0;" parent="1" source="28" target="212" edge="1">
                    <mxGeometry relative="1" as="geometry"/>
                </mxCell>
                <mxCell id="28" value="actúa" style="rhombus;whiteSpace=wrap;html=1;fillColor=#fff2cc;strokeColor=#d6b656;" parent="1" vertex="1">
                    <mxGeometry x="-260" y="720" width="80" height="80" as="geometry"/>
                </mxCell>
                <mxCell id="93" style="edgeStyle=none;html=1;exitX=0.25;exitY=1;exitDx=0;exitDy=0;entryX=0.5;entryY=0;entryDx=0;entryDy=0;endArrow=none;endFill=0;" parent="1" source="29" target="86" edge="1">
                    <mxGeometry relative="1" as="geometry"/>
                </mxCell>
                <mxCell id="195" style="edgeStyle=none;html=1;exitX=1;exitY=0.5;exitDx=0;exitDy=0;entryX=0;entryY=0.5;entryDx=0;entryDy=0;endArrow=none;endFill=0;" parent="1" source="29" target="194" edge="1">
                    <mxGeometry relative="1" as="geometry"/>
                </mxCell>
                <mxCell id="266" style="edgeStyle=none;html=1;exitX=0;exitY=0.5;exitDx=0;exitDy=0;entryX=0.5;entryY=1;entryDx=0;entryDy=0;endArrow=none;endFill=0;" parent="1" source="29" target="264" edge="1">
                    <mxGeometry relative="1" as="geometry">
                        <Array as="points">
                            <mxPoint x="-780" y="900"/>
                        </Array>
                    </mxGeometry>
                </mxCell>
                <mxCell id="29" value="Película" style="rounded=0;whiteSpace=wrap;html=1;fillColor=#e1d5e7;strokeColor=#9673a6;" parent="1" vertex="1">
                    <mxGeometry x="-280" y="880" width="120" height="40" as="geometry"/>
                </mxCell>
                <mxCell id="66" value="Nombre" style="ellipse;whiteSpace=wrap;html=1;aspect=fixed;fillColor=#e1d5e7;strokeColor=#9673a6;verticalAlign=bottom;labelPosition=center;verticalLabelPosition=top;align=center;" parent="1" vertex="1">
                    <mxGeometry x="-240" y="240" width="40" height="40" as="geometry"/>
                </mxCell>
                <mxCell id="86" value="Título" style="ellipse;whiteSpace=wrap;html=1;aspect=fixed;fillColor=#5C068C;fontColor=#000000;strokeColor=#3700CC;verticalAlign=middle;labelPosition=left;verticalLabelPosition=middle;align=right;" parent="1" vertex="1">
                    <mxGeometry x="-280" y="960" width="40" height="40" as="geometry"/>
                </mxCell>
                <mxCell id="147" value="Actor" style="rounded=0;whiteSpace=wrap;html=1;fillColor=#e1d5e7;strokeColor=#9673a6;" parent="1" vertex="1">
                    <mxGeometry x="-280" y="600" width="120" height="40" as="geometry"/>
                </mxCell>
                <mxCell id="158" style="edgeStyle=none;html=1;exitX=0.5;exitY=0;exitDx=0;exitDy=0;entryX=0.5;entryY=1;entryDx=0;entryDy=0;endArrow=none;endFill=0;" parent="1" source="28" target="147" edge="1">
                    <mxGeometry relative="1" as="geometry">
                        <mxPoint x="-180" y="680" as="sourcePoint"/>
                    </mxGeometry>
                </mxCell>
                <mxCell id="160" style="edgeStyle=none;html=1;exitX=0.5;exitY=0;exitDx=0;exitDy=0;entryX=0.5;entryY=1;entryDx=0;entryDy=0;endArrow=none;endFill=0;" parent="1" source="159" target="193" edge="1">
                    <mxGeometry relative="1" as="geometry">
                        <mxPoint x="200" y="810" as="targetPoint"/>
                    </mxGeometry>
                </mxCell>
                <mxCell id="159" value="Nombre" style="ellipse;whiteSpace=wrap;html=1;aspect=fixed;fillColor=#5C068C;strokeColor=#9673a6;verticalAlign=top;labelPosition=center;verticalLabelPosition=bottom;align=center;" parent="1" vertex="1">
                    <mxGeometry x="120" y="960" width="40" height="40" as="geometry"/>
                </mxCell>
                <mxCell id="170" style="edgeStyle=none;html=1;exitX=0.5;exitY=0;exitDx=0;exitDy=0;entryX=0.5;entryY=1;entryDx=0;entryDy=0;endArrow=none;endFill=0;" parent="1" source="168" target="226" edge="1">
                    <mxGeometry relative="1" as="geometry"/>
                </mxCell>
                <mxCell id="171" style="edgeStyle=none;html=1;exitX=0.5;exitY=1;exitDx=0;exitDy=0;entryX=0.25;entryY=0;entryDx=0;entryDy=0;endArrow=none;endFill=0;" parent="1" source="168" target="29" edge="1">
                    <mxGeometry relative="1" as="geometry"/>
                </mxCell>
                <mxCell id="168" value="dirigida por" style="rhombus;whiteSpace=wrap;html=1;fillColor=#fff2cc;strokeColor=#d6b656;" parent="1" vertex="1">
                    <mxGeometry x="-460" y="720" width="80" height="80" as="geometry"/>
                </mxCell>
                <mxCell id="221" style="edgeStyle=none;html=1;exitX=1;exitY=1;exitDx=0;exitDy=0;entryX=0.25;entryY=0;entryDx=0;entryDy=0;endArrow=none;endFill=0;" parent="1" source="177" target="27" edge="1">
                    <mxGeometry relative="1" as="geometry"/>
                </mxCell>
                <mxCell id="177" value="SSN" style="ellipse;whiteSpace=wrap;html=1;aspect=fixed;fillColor=#5C068C;strokeColor=#9673a6;verticalAlign=bottom;labelPosition=center;verticalLabelPosition=top;align=center;" parent="1" vertex="1">
                    <mxGeometry x="-320" y="240" width="40" height="40" as="geometry"/>
                </mxCell>
                <mxCell id="188" style="edgeStyle=none;html=1;exitX=0;exitY=1;exitDx=0;exitDy=0;entryX=1;entryY=0.25;entryDx=0;entryDy=0;endArrow=none;endFill=0;" parent="1" source="187" target="227" edge="1">
                    <mxGeometry relative="1" as="geometry">
                        <mxPoint x="110" y="600" as="targetPoint"/>
                    </mxGeometry>
                </mxCell>
                <mxCell id="187" value="Identificador" style="ellipse;whiteSpace=wrap;html=1;aspect=fixed;fillColor=#5C068C;strokeColor=#9673a6;verticalAlign=middle;labelPosition=right;verticalLabelPosition=middle;align=left;" parent="1" vertex="1">
                    <mxGeometry x="80" y="560" width="40" height="40" as="geometry"/>
                </mxCell>
                <mxCell id="228" style="edgeStyle=none;html=1;exitX=0;exitY=0.5;exitDx=0;exitDy=0;entryX=1;entryY=0.75;entryDx=0;entryDy=0;endArrow=none;endFill=0;" parent="1" source="189" target="227" edge="1">
                    <mxGeometry relative="1" as="geometry"/>
                </mxCell>
                <mxCell id="189" value="Ciudad" style="ellipse;whiteSpace=wrap;html=1;aspect=fixed;fillColor=#e1d5e7;strokeColor=#9673a6;verticalAlign=middle;labelPosition=right;verticalLabelPosition=middle;align=left;" parent="1" vertex="1">
                    <mxGeometry x="80" y="640" width="40" height="40" as="geometry"/>
                </mxCell>
                <mxCell id="193" value="Categoría" style="rounded=0;whiteSpace=wrap;html=1;fillColor=#e1d5e7;strokeColor=#9673a6;" parent="1" vertex="1">
                    <mxGeometry x="80" y="880" width="120" height="40" as="geometry"/>
                </mxCell>
                <mxCell id="196" style="edgeStyle=none;html=1;exitX=1;exitY=0.5;exitDx=0;exitDy=0;entryX=0;entryY=0.5;entryDx=0;entryDy=0;endArrow=none;endFill=0;" parent="1" source="194" target="193" edge="1">
                    <mxGeometry relative="1" as="geometry"/>
                </mxCell>
                <mxCell id="194" value="está en" style="rhombus;whiteSpace=wrap;html=1;fillColor=#fff2cc;strokeColor=#d6b656;" parent="1" vertex="1">
                    <mxGeometry x="-80" y="860" width="80" height="80" as="geometry"/>
                </mxCell>
                <mxCell id="201" value="(0,N)" style="text;html=1;strokeColor=none;fillColor=none;align=center;verticalAlign=middle;whiteSpace=wrap;rounded=0;" parent="1" vertex="1">
                    <mxGeometry x="-160" y="310" width="40" height="30" as="geometry"/>
                </mxCell>
                <mxCell id="205" value="(0,N)" style="text;html=1;strokeColor=none;fillColor=none;align=center;verticalAlign=middle;whiteSpace=wrap;rounded=0;" parent="1" vertex="1">
                    <mxGeometry x="-160" y="900" width="40" height="30" as="geometry"/>
                </mxCell>
                <mxCell id="211" value="(0,N)" style="text;html=1;strokeColor=none;fillColor=none;align=center;verticalAlign=middle;whiteSpace=wrap;rounded=0;" parent="1" vertex="1">
                    <mxGeometry x="-320" y="860" width="40" height="30" as="geometry"/>
                </mxCell>
                <mxCell id="271" style="edgeStyle=none;html=1;exitX=0.75;exitY=1;exitDx=0;exitDy=0;entryX=0.5;entryY=1;entryDx=0;entryDy=0;endArrow=none;endFill=0;" parent="1" source="212" target="270" edge="1">
                    <mxGeometry relative="1" as="geometry"/>
                </mxCell>
                <mxCell id="212" value="(0,N)" style="text;html=1;strokeColor=none;fillColor=none;align=center;verticalAlign=middle;whiteSpace=wrap;rounded=0;" parent="1" vertex="1">
                    <mxGeometry x="-220" y="850" width="40" height="30" as="geometry"/>
                </mxCell>
                <mxCell id="214" value="(1,N)" style="text;html=1;strokeColor=none;fillColor=none;align=center;verticalAlign=middle;whiteSpace=wrap;rounded=0;" parent="1" vertex="1">
                    <mxGeometry x="-260" y="640" width="40" height="30" as="geometry"/>
                </mxCell>
                <mxCell id="217" value="Personaje" style="ellipse;whiteSpace=wrap;html=1;aspect=fixed;fillColor=#5C068C;strokeColor=#9673a6;verticalAlign=middle;labelPosition=right;verticalLabelPosition=middle;align=left;" parent="1" vertex="1">
                    <mxGeometry x="-160" y="700" width="40" height="40" as="geometry"/>
                </mxCell>
                <mxCell id="223" style="edgeStyle=none;html=1;exitX=0;exitY=1;exitDx=0;exitDy=0;entryX=0.75;entryY=0;entryDx=0;entryDy=0;endArrow=none;endFill=0;" parent="1" source="222" target="27" edge="1">
                    <mxGeometry relative="1" as="geometry"/>
                </mxCell>
                <mxCell id="222" value="Sexo" style="ellipse;whiteSpace=wrap;html=1;aspect=fixed;fillColor=#e1d5e7;strokeColor=#9673a6;verticalAlign=bottom;labelPosition=center;verticalLabelPosition=top;align=center;" parent="1" vertex="1">
                    <mxGeometry x="-160" y="240" width="40" height="40" as="geometry"/>
                </mxCell>
                <mxCell id="226" value="Director" style="rounded=0;whiteSpace=wrap;html=1;fillColor=#e1d5e7;strokeColor=#9673a6;" parent="1" vertex="1">
                    <mxGeometry x="-480" y="600" width="120" height="40" as="geometry"/>
                </mxCell>
                <mxCell id="227" value="Estudio" style="rounded=0;whiteSpace=wrap;html=1;fillColor=#e1d5e7;strokeColor=#9673a6;" parent="1" vertex="1">
                    <mxGeometry x="-80" y="600" width="120" height="40" as="geometry"/>
                </mxCell>
                <mxCell id="232" style="edgeStyle=none;html=1;exitX=0.5;exitY=1;exitDx=0;exitDy=0;entryX=0.5;entryY=0;entryDx=0;entryDy=0;endArrow=none;endFill=0;" parent="1" source="230" target="227" edge="1">
                    <mxGeometry relative="1" as="geometry"/>
                </mxCell>
                <mxCell id="262" style="edgeStyle=none;html=1;exitX=1;exitY=0;exitDx=0;exitDy=0;entryX=0;entryY=0.5;entryDx=0;entryDy=0;endArrow=none;endFill=0;" parent="1" source="230" target="260" edge="1">
                    <mxGeometry relative="1" as="geometry"/>
                </mxCell>
                <mxCell id="263" style="edgeStyle=none;html=1;exitX=1;exitY=1;exitDx=0;exitDy=0;entryX=0;entryY=0.5;entryDx=0;entryDy=0;endArrow=none;endFill=0;" parent="1" source="230" target="261" edge="1">
                    <mxGeometry relative="1" as="geometry"/>
                </mxCell>
                <mxCell id="230" value="contratado por" style="rhombus;whiteSpace=wrap;html=1;fillColor=#fff2cc;strokeColor=#d6b656;" parent="1" vertex="1">
                    <mxGeometry x="-60" y="440" width="80" height="80" as="geometry"/>
                </mxCell>
                <mxCell id="233" value="(0,N)" style="text;html=1;strokeColor=none;fillColor=none;align=center;verticalAlign=middle;whiteSpace=wrap;rounded=0;" parent="1" vertex="1">
                    <mxGeometry x="-20" y="570" width="40" height="30" as="geometry"/>
                </mxCell>
                <mxCell id="236" style="edgeStyle=none;html=1;exitX=1;exitY=0.5;exitDx=0;exitDy=0;entryX=0;entryY=1;entryDx=0;entryDy=0;endArrow=none;endFill=0;" parent="1" source="234" edge="1">
                    <mxGeometry relative="1" as="geometry">
                        <mxPoint x="-220" y="600" as="targetPoint"/>
                    </mxGeometry>
                </mxCell>
                <mxCell id="237" style="edgeStyle=none;html=1;exitX=0.5;exitY=1;exitDx=0;exitDy=0;entryX=0.5;entryY=0;entryDx=0;entryDy=0;endArrow=none;endFill=0;" parent="1" source="234" target="226" edge="1">
                    <mxGeometry relative="1" as="geometry"/>
                </mxCell>
                <mxCell id="234" value="" style="triangle;whiteSpace=wrap;html=1;fillColor=#e1d5e7;rotation=90;strokeColor=#9673a6;" parent="1" vertex="1">
                    <mxGeometry x="-240" y="443.75" width="40" height="72.5" as="geometry"/>
                </mxCell>
                <mxCell id="239" value="" style="ellipse;whiteSpace=wrap;html=1;aspect=fixed;fillColor=#e1d5e7;strokeColor=#9673a6;verticalAlign=middle;labelPosition=right;verticalLabelPosition=middle;align=left;" parent="1" vertex="1">
                    <mxGeometry x="-230" y="440" width="20" height="20" as="geometry"/>
                </mxCell>
                <mxCell id="243" value="(1,1)" style="text;html=1;strokeColor=none;fillColor=none;align=center;verticalAlign=middle;whiteSpace=wrap;rounded=0;" parent="1" vertex="1">
                    <mxGeometry x="-220" y="360" width="40" height="30" as="geometry"/>
                </mxCell>
                <mxCell id="245" value="(0,1)" style="text;html=1;strokeColor=none;fillColor=none;align=center;verticalAlign=middle;whiteSpace=wrap;rounded=0;" parent="1" vertex="1">
                    <mxGeometry x="-390" y="570" width="40" height="30" as="geometry"/>
                </mxCell>
                <mxCell id="246" value="(0,1)" style="text;html=1;strokeColor=none;fillColor=none;align=center;verticalAlign=middle;whiteSpace=wrap;rounded=0;" parent="1" vertex="1">
                    <mxGeometry x="-260" y="570" width="40" height="30" as="geometry"/>
                </mxCell>
                <mxCell id="248" style="edgeStyle=none;html=1;exitX=0;exitY=1;exitDx=0;exitDy=0;entryX=0.75;entryY=0;entryDx=0;entryDy=0;endArrow=none;endFill=0;" parent="1" source="247" target="147" edge="1">
                    <mxGeometry relative="1" as="geometry"/>
                </mxCell>
                <mxCell id="247" value="Ranking IMDB" style="ellipse;whiteSpace=wrap;html=1;aspect=fixed;fillColor=#e1d5e7;strokeColor=#9673a6;verticalAlign=bottom;labelPosition=center;verticalLabelPosition=top;align=center;" parent="1" vertex="1">
                    <mxGeometry x="-160" y="520" width="40" height="40" as="geometry"/>
                </mxCell>
                <mxCell id="251" style="edgeStyle=none;html=1;exitX=1;exitY=1;exitDx=0;exitDy=0;entryX=0.25;entryY=0;entryDx=0;entryDy=0;endArrow=none;endFill=0;" parent="1" source="250" target="226" edge="1">
                    <mxGeometry relative="1" as="geometry"/>
                </mxCell>
                <mxCell id="250" value="Año inicio carrera" style="ellipse;whiteSpace=wrap;html=1;aspect=fixed;fillColor=#e1d5e7;strokeColor=#9673a6;verticalAlign=bottom;labelPosition=center;verticalLabelPosition=top;align=center;" parent="1" vertex="1">
                    <mxGeometry x="-520" y="540" width="40" height="40" as="geometry"/>
                </mxCell>
                <mxCell id="252" value="(1,N)" style="text;html=1;strokeColor=none;fillColor=none;align=center;verticalAlign=middle;whiteSpace=wrap;rounded=0;" parent="1" vertex="1">
                    <mxGeometry x="-420" y="640" width="40" height="30" as="geometry"/>
                </mxCell>
                <mxCell id="255" value="(1,N)" style="text;html=1;strokeColor=none;fillColor=none;align=center;verticalAlign=middle;whiteSpace=wrap;rounded=0;" parent="1" vertex="1">
                    <mxGeometry x="40" y="900" width="40" height="30" as="geometry"/>
                </mxCell>
                <mxCell id="265" style="edgeStyle=none;html=1;exitX=0.5;exitY=0;exitDx=0;exitDy=0;entryX=0.75;entryY=1;entryDx=0;entryDy=0;endArrow=none;endFill=0;" parent="1" source="257" target="29" edge="1">
                    <mxGeometry relative="1" as="geometry"/>
                </mxCell>
                <mxCell id="257" value="Año" style="ellipse;whiteSpace=wrap;html=1;aspect=fixed;fillColor=#e1d5e7;strokeColor=#9673a6;verticalAlign=middle;labelPosition=right;verticalLabelPosition=middle;align=left;" parent="1" vertex="1">
                    <mxGeometry x="-200" y="960" width="40" height="40" as="geometry"/>
                </mxCell>
                <mxCell id="260" value="Fecha comienzo" style="ellipse;whiteSpace=wrap;html=1;aspect=fixed;fillColor=#5C068C;strokeColor=#9673a6;verticalAlign=middle;labelPosition=right;verticalLabelPosition=middle;align=left;" parent="1" vertex="1">
                    <mxGeometry x="80" y="430" width="40" height="40" as="geometry"/>
                </mxCell>
                <mxCell id="261" value="Fecha fin" style="ellipse;whiteSpace=wrap;html=1;aspect=fixed;fillColor=#e1d5e7;strokeColor=#9673a6;verticalAlign=middle;labelPosition=right;verticalLabelPosition=middle;align=left;" parent="1" vertex="1">
                    <mxGeometry x="80" y="490" width="40" height="40" as="geometry"/>
                </mxCell>
                <mxCell id="267" style="edgeStyle=none;html=1;exitX=0.5;exitY=0;exitDx=0;exitDy=0;entryX=0;entryY=0.5;entryDx=0;entryDy=0;endArrow=none;endFill=0;" parent="1" source="264" target="27" edge="1">
                    <mxGeometry relative="1" as="geometry">
                        <Array as="points">
                            <mxPoint x="-780" y="340"/>
                        </Array>
                    </mxGeometry>
                </mxCell>
                <mxCell id="264" value="favorita de" style="rhombus;whiteSpace=wrap;html=1;fillColor=#fff2cc;strokeColor=#d6b656;" parent="1" vertex="1">
                    <mxGeometry x="-820" y="580" width="80" height="80" as="geometry"/>
                </mxCell>
                <mxCell id="268" value="(1,1)" style="text;html=1;strokeColor=none;fillColor=none;align=center;verticalAlign=middle;whiteSpace=wrap;rounded=0;" parent="1" vertex="1">
                    <mxGeometry x="-320" y="900" width="40" height="30" as="geometry"/>
                </mxCell>
                <mxCell id="269" value="(0,N)" style="text;html=1;strokeColor=none;fillColor=none;align=center;verticalAlign=middle;whiteSpace=wrap;rounded=0;" parent="1" vertex="1">
                    <mxGeometry x="-320" y="310" width="40" height="30" as="geometry"/>
                </mxCell>
                <mxCell id="272" style="edgeStyle=none;html=1;exitX=0.5;exitY=0;exitDx=0;exitDy=0;entryX=0.5;entryY=1;entryDx=0;entryDy=0;endArrow=none;endFill=0;" parent="1" source="270" target="227" edge="1">
                    <mxGeometry relative="1" as="geometry"/>
                </mxCell>
                <mxCell id="276" style="edgeStyle=none;html=1;exitX=1;exitY=0.5;exitDx=0;exitDy=0;entryX=0;entryY=0.5;entryDx=0;entryDy=0;endArrow=none;endFill=0;" parent="1" source="270" target="275" edge="1">
                    <mxGeometry relative="1" as="geometry"/>
                </mxCell>
                <mxCell id="270" value="producida por" style="rhombus;whiteSpace=wrap;html=1;fillColor=#fff2cc;strokeColor=#d6b656;" parent="1" vertex="1">
                    <mxGeometry x="-60" y="720" width="80" height="80" as="geometry"/>
                </mxCell>
                <mxCell id="273" value="(1,1)" style="text;html=1;strokeColor=none;fillColor=none;align=center;verticalAlign=middle;whiteSpace=wrap;rounded=0;" parent="1" vertex="1">
                    <mxGeometry x="-60" y="640" width="40" height="30" as="geometry"/>
                </mxCell>
                <mxCell id="274" value="(0,N)" style="text;html=1;strokeColor=none;fillColor=none;align=center;verticalAlign=middle;whiteSpace=wrap;rounded=0;" parent="1" vertex="1">
                    <mxGeometry x="-160" y="850" width="40" height="30" as="geometry"/>
                </mxCell>
                <mxCell id="275" value="Presupuesto" style="ellipse;whiteSpace=wrap;html=1;aspect=fixed;fillColor=#e1d5e7;strokeColor=#9673a6;verticalAlign=middle;labelPosition=right;verticalLabelPosition=middle;align=left;" parent="1" vertex="1">
                    <mxGeometry x="40" y="740" width="40" height="40" as="geometry"/>
                </mxCell>
                <mxCell id="278" style="edgeStyle=none;html=1;exitX=0.5;exitY=1;exitDx=0;exitDy=0;entryX=0.5;entryY=0;entryDx=0;entryDy=0;endArrow=none;endFill=0;" edge="1" parent="1" source="277" target="226">
                    <mxGeometry relative="1" as="geometry"/>
                </mxCell>
                <mxCell id="277" value="Biografía" style="ellipse;whiteSpace=wrap;html=1;aspect=fixed;fillColor=#e1d5e7;strokeColor=#9673a6;verticalAlign=bottom;labelPosition=center;verticalLabelPosition=top;align=center;" vertex="1" parent="1">
                    <mxGeometry x="-440" y="516.25" width="40" height="40" as="geometry"/>
                </mxCell>
                <mxCell id="282" style="edgeStyle=none;html=1;exitX=0.5;exitY=0;exitDx=0;exitDy=0;entryX=0.5;entryY=1;entryDx=0;entryDy=0;endArrow=none;endFill=0;" edge="1" parent="1" source="279" target="281">
                    <mxGeometry relative="1" as="geometry"/>
                </mxCell>
                <mxCell id="288" style="edgeStyle=none;html=1;exitX=1;exitY=0.5;exitDx=0;exitDy=0;entryX=0;entryY=0.5;entryDx=0;entryDy=0;endArrow=none;endFill=0;" edge="1" parent="1" source="279" target="287">
                    <mxGeometry relative="1" as="geometry"/>
                </mxCell>
                <mxCell id="290" style="edgeStyle=none;html=1;exitX=1;exitY=0;exitDx=0;exitDy=0;entryX=0;entryY=1;entryDx=0;entryDy=0;endArrow=none;endFill=0;" edge="1" parent="1" source="279" target="289">
                    <mxGeometry relative="1" as="geometry"/>
                </mxCell>
                <mxCell id="279" value="Galardón" style="rounded=0;whiteSpace=wrap;html=1;fillColor=#e1d5e7;strokeColor=#9673a6;" vertex="1" parent="1">
                    <mxGeometry x="-720" y="760" width="120" height="40" as="geometry"/>
                </mxCell>
                <mxCell id="283" style="edgeStyle=none;html=1;exitX=1;exitY=0.5;exitDx=0;exitDy=0;entryX=0;entryY=0.5;entryDx=0;entryDy=0;endArrow=none;endFill=0;" edge="1" parent="1" source="281" target="226">
                    <mxGeometry relative="1" as="geometry"/>
                </mxCell>
                <mxCell id="281" value="se le concede a" style="rhombus;whiteSpace=wrap;html=1;fillColor=#fff2cc;strokeColor=#d6b656;" vertex="1" parent="1">
                    <mxGeometry x="-700" y="580" width="80" height="80" as="geometry"/>
                </mxCell>
                <mxCell id="284" value="(0,N)" style="text;html=1;strokeColor=none;fillColor=none;align=center;verticalAlign=middle;whiteSpace=wrap;rounded=0;" vertex="1" parent="1">
                    <mxGeometry x="-660" y="730" width="40" height="30" as="geometry"/>
                </mxCell>
                <mxCell id="285" value="(1,N)" style="text;html=1;strokeColor=none;fillColor=none;align=center;verticalAlign=middle;whiteSpace=wrap;rounded=0;" vertex="1" parent="1">
                    <mxGeometry x="-520" y="620" width="40" height="30" as="geometry"/>
                </mxCell>
                <mxCell id="287" value="Fecha entrega" style="ellipse;whiteSpace=wrap;html=1;aspect=fixed;fillColor=#e1d5e7;strokeColor=#9673a6;verticalAlign=middle;labelPosition=right;verticalLabelPosition=middle;align=left;" vertex="1" parent="1">
                    <mxGeometry x="-560" y="760" width="40" height="40" as="geometry"/>
                </mxCell>
                <mxCell id="289" value="Nombre" style="ellipse;whiteSpace=wrap;html=1;aspect=fixed;fillColor=#5C068C;strokeColor=#9673a6;verticalAlign=middle;labelPosition=right;verticalLabelPosition=middle;align=left;" vertex="1" parent="1">
                    <mxGeometry x="-560" y="710" width="40" height="40" as="geometry"/>
                </mxCell>
            </root>
        </mxGraphModel>
    </diagram>
</mxfile>